<?xml version="1.0" encoding="utf-8"?>
<!-- Generator: Adobe Illustrator 25.0.0, SVG Export Plug-In . SVG Version: 6.00 Build 0)  -->
<svg version="1.1" id="Layer_1" xmlns="http://www.w3.org/2000/svg" xmlns:xlink="http://www.w3.org/1999/xlink" x="0px" y="0px"
	 viewBox="0 0 512 512" style="enable-background:new 0 0 512 512;" xml:space="preserve">
<style type="text/css">
	.st0{fill:#C2C2C2;}
</style>
<polygon points="85.6,256.6 255.5,426.4 255.4,426.4 85.6,256.6 255.4,86.7 255.5,86.7 "/>
<rect x="161.7" y="162.8" transform="matrix(0.7071 -0.7071 0.7071 0.7071 -106.5987 255.768)" width="187.5" height="187.5"/>
<g>
	<path d="M469.2,230L282,42.8c-7.1-7.1-16.5-11-26.5-11c-10,0-19.4,3.9-26.5,11L41.7,230c-7.1,7.1-11,16.5-11,26.5
		c0,10,3.9,19.4,11,26.5L229,470.3c7.1,7.1,16.5,11,26.5,11c10,0,19.4-3.9,26.5-11l187.2-187.2c7.1-7.1,11-16.5,11-26.5
		C480.2,246.5,476.3,237.1,469.2,230z M255.4,449.6L62.4,256.6L255.4,63.5l193.1,193.1L255.4,449.6z"/>
	<path class="st0" d="M498.4,226.4L285.6,13.6c-8.1-8.1-18.8-12.5-30.1-12.5c-11.4,0-22.1,4.4-30.1,12.5L12.5,226.4
		C4.4,234.5,0,245.2,0,256.6c0,11.4,4.4,22.1,12.5,30.1l212.8,212.8c8.1,8.1,18.8,12.5,30.1,12.5c11.4,0,22.1-4.4,30.1-12.5
		l212.8-212.8c8.1-8.1,12.5-18.8,12.5-30.1C510.9,245.2,506.4,234.5,498.4,226.4z M469.2,283.1L282,470.3c-7.1,7.1-16.5,11-26.5,11
		c-10,0-19.4-3.9-26.5-11L41.7,283.1c-7.1-7.1-11-16.5-11-26.5c0-10,3.9-19.4,11-26.5L229,42.8c7.1-7.1,16.5-11,26.5-11
		c10,0,19.4,3.9,26.5,11L469.2,230c7.1,7.1,11,16.5,11,26.5C480.2,266.6,476.3,276,469.2,283.1z"/>
</g>
<g>
	<rect x="161.7" y="162.8" transform="matrix(0.7071 -0.7071 0.7071 0.7071 -106.5987 255.768)" width="187.5" height="187.5"/>
	<path d="M469.2,230L282,42.8c-7.1-7.1-16.5-11-26.5-11c-10,0-19.4,3.9-26.5,11L41.7,230c-7.1,7.1-11,16.5-11,26.5
		c0,10,3.9,19.4,11,26.5L229,470.3c7.1,7.1,16.5,11,26.5,11c10,0,19.4-3.9,26.5-11l187.2-187.2c7.1-7.1,11-16.5,11-26.5
		C480.2,246.5,476.3,237.1,469.2,230z M255.5,426.4L85.6,256.6L255.5,86.7l0,0l169.9,169.9L255.5,426.4z"/>
	<path class="st0" d="M255.5,86.7L85.6,256.6l169.8,169.8l169.8-169.8L255.5,86.7z M255.4,389.1L122.9,256.6L255.4,124L388,256.6
		L255.4,389.1z"/>
</g>
</svg>
